<svg xmlns="http://www.w3.org/2000/svg" xmlns:xlink="http://www.w3.org/1999/xlink" width="500" zoomAndPan="magnify" viewBox="0 0 375 374.999991" height="500" preserveAspectRatio="xMidYMid meet" version="1.0"><defs><clipPath id="989fb628b7"><path d="M 235.046875 144.113281 L 298.046875 144.113281 L 298.046875 207.113281 L 235.046875 207.113281 Z M 235.046875 144.113281 " clip-rule="nonzero"/></clipPath><clipPath id="d379801eb3"><path d="M 283.546875 200.4375 L 328.546875 200.4375 L 328.546875 245.4375 L 283.546875 245.4375 Z M 283.546875 200.4375 " clip-rule="nonzero"/></clipPath><clipPath id="83cf6dd2ad"><path d="M 328.601562 235.253906 L 359.351562 235.253906 L 359.351562 266.003906 L 328.601562 266.003906 Z M 328.601562 235.253906 " clip-rule="nonzero"/></clipPath></defs><path fill="#282626" d="M 365.132812 38.960938 C 361.40625 31.140625 355.050781 27.050781 347.742188 25.515625 C 349.640625 23.761719 351.25 21.640625 352.710938 19.230469 C 356.21875 13.457031 357.753906 6.660156 357.898438 -0.0625 C 358.191406 -13.871094 352.566406 -27.828125 343.941406 -38.425781 C 327.5 -58.667969 297.613281 -58.449219 275.910156 -46.097656 C 278.246094 -57.789062 276.710938 -70.503906 270.136719 -80.296875 C 262.464844 -91.84375 249.457031 -97.980469 236.082031 -100.101562 C 207.949219 -104.484375 172.871094 -95.058594 154.605469 -72.1875 C 147.882812 -63.855469 145.25 -54.792969 146.054688 -45.441406 C 143.863281 -47.046875 141.523438 -48.511719 139.476562 -49.753906 C 133.558594 -53.1875 127.054688 -55.523438 120.257812 -56.476562 C 106.300781 -58.375 91.027344 -53.84375 80.214844 -44.78125 C 71.808594 -37.769531 64.136719 -27.171875 61.214844 -16.574219 C 59.972656 -12.191406 59.3125 -6.855469 61.066406 -2.546875 C 61.140625 -2.328125 61.285156 -2.105469 61.359375 -1.816406 C 26.867188 -16.285156 -13.6875 40.421875 11.449219 71.042969 C 21.535156 83.316406 37.683594 87.996094 52.957031 90.039062 C 55.660156 111.597656 67.570312 130.378906 87.886719 139.585938 C 107.761719 148.648438 131.65625 147.699219 150.21875 135.933594 C 158.476562 130.671875 164.90625 123.730469 169.875 115.691406 C 186.246094 139.730469 214.597656 155.441406 243.753906 142.949219 C 261.585938 135.273438 282.414062 115.617188 285.628906 94.71875 C 302.433594 106.773438 328.230469 107.140625 345.769531 97.203125 C 365.207031 86.167969 375 59.496094 365.132812 38.960938 Z M 350.300781 77.035156 C 342.699219 87.554688 329.617188 91.210938 317.269531 90.699219 C 303.824219 90.113281 292.132812 83.390625 284.167969 72.722656 C 282.414062 70.382812 280 69.578125 277.882812 69.800781 C 274.082031 69.140625 269.625 72.285156 271.085938 76.886719 C 274.886719 88.507812 272.765625 98.808594 265.96875 108.820312 C 259.320312 118.539062 249.234375 126.796875 238.273438 131.183594 C 212.261719 141.632812 186.539062 123.070312 174.84375 100.34375 C 172.214844 95.230469 165.710938 97.421875 163.882812 101.804688 C 154.382812 124.53125 130.855469 136.515625 106.8125 133.226562 C 82.40625 129.941406 63.480469 110.792969 61.796875 85.949219 C 61.652344 83.246094 59.824219 81.636719 57.195312 81.34375 C 36.660156 79.007812 10.132812 69.726562 12.328125 44.589844 C 13.789062 27.632812 26.648438 10.828125 42.066406 4.03125 C 50.835938 0.160156 61.066406 0.0117188 69.105469 5.710938 C 70.128906 6.441406 71.445312 4.761719 70.496094 3.886719 C 69.984375 3.445312 69.542969 3.082031 69.03125 2.714844 C 68.886719 -0.132812 66.988281 -2.691406 66.988281 -5.832031 C 66.914062 -10.144531 68.59375 -14.164062 70.421875 -17.964844 C 74.222656 -25.785156 79.992188 -33.601562 87.082031 -38.71875 C 96.289062 -45.367188 108.933594 -48.730469 120.113281 -46.464844 C 125.738281 -45.292969 130.925781 -42.957031 135.675781 -39.8125 C 141.011719 -36.304688 144.886719 -31.117188 150.074219 -27.609375 C 154.3125 -24.761719 158.621094 -30.167969 156.648438 -34.1875 C 155.699219 -36.160156 154.3125 -37.988281 152.703125 -39.742188 C 151.535156 -60.785156 170.097656 -77.300781 189.167969 -84.535156 C 209.628906 -92.28125 241.710938 -96.15625 258.078125 -77.886719 C 268.601562 -66.195312 265.019531 -50.628906 263.121094 -36.671875 C 263.121094 -36.597656 263.121094 -36.527344 263.121094 -36.453125 C 262.753906 -36.085938 262.464844 -35.792969 262.097656 -35.429688 C 260.199219 -33.382812 262.683594 -29.875 265.167969 -31.484375 C 265.238281 -31.554688 265.386719 -31.628906 265.460938 -31.703125 C 267.359375 -30.3125 270.0625 -30.386719 271.453125 -33.164062 C 271.890625 -33.96875 272.253906 -34.84375 272.621094 -35.722656 C 292.203125 -45.441406 319.242188 -49.753906 334.222656 -31.703125 C 340.800781 -23.808594 345.109375 -13.140625 345.402344 -2.835938 C 345.769531 9 339.703125 15.648438 331.664062 23.324219 C 329.328125 25.515625 330.058594 28.367188 332.03125 29.972656 C 332.46875 30.996094 333.417969 31.800781 334.953125 31.726562 C 359.800781 31.289062 361.625 61.25 350.300781 77.035156 Z M 350.300781 77.035156 " fill-opacity="1" fill-rule="nonzero"/><g clip-path="url(#989fb628b7)"><path fill="#000000" d="M 266.546875 207.113281 C 249.144531 207.113281 235.046875 192.917969 235.046875 175.613281 C 235.046875 158.308594 249.144531 144.113281 266.546875 144.113281 C 283.949219 144.113281 298.046875 158.210938 298.046875 175.613281 C 298.046875 193.015625 283.851562 207.113281 266.546875 207.113281 Z M 266.546875 146.058594 C 250.210938 146.058594 236.988281 159.28125 236.988281 175.613281 C 236.988281 191.949219 250.210938 205.167969 266.546875 205.167969 C 282.878906 205.167969 296.101562 191.949219 296.101562 175.613281 C 296.101562 159.28125 282.78125 146.058594 266.546875 146.058594 Z M 266.546875 146.058594 " fill-opacity="1" fill-rule="nonzero"/></g><g clip-path="url(#d379801eb3)"><path fill="#000000" d="M 306.046875 245.4375 C 293.617188 245.4375 283.546875 235.300781 283.546875 222.9375 C 283.546875 210.578125 293.617188 200.4375 306.046875 200.4375 C 318.480469 200.4375 328.546875 210.507812 328.546875 222.9375 C 328.546875 235.371094 318.410156 245.4375 306.046875 245.4375 Z M 306.046875 201.828125 C 294.382812 201.828125 284.9375 211.273438 284.9375 222.9375 C 284.9375 234.605469 294.382812 244.050781 306.046875 244.050781 C 317.714844 244.050781 327.160156 234.605469 327.160156 222.9375 C 327.160156 211.273438 317.644531 201.828125 306.046875 201.828125 Z M 306.046875 201.828125 " fill-opacity="1" fill-rule="nonzero"/></g><g clip-path="url(#83cf6dd2ad)"><path fill="#000000" d="M 343.976562 266.003906 C 335.484375 266.003906 328.601562 259.074219 328.601562 250.628906 C 328.601562 242.179688 335.484375 235.253906 343.976562 235.253906 C 352.472656 235.253906 359.351562 242.132812 359.351562 250.628906 C 359.351562 259.121094 352.425781 266.003906 343.976562 266.003906 Z M 343.976562 236.203125 C 336.003906 236.203125 329.550781 242.65625 329.550781 250.628906 C 329.550781 258.601562 336.003906 265.054688 343.976562 265.054688 C 351.949219 265.054688 358.402344 258.601562 358.402344 250.628906 C 358.402344 242.65625 351.902344 236.203125 343.976562 236.203125 Z M 343.976562 236.203125 " fill-opacity="1" fill-rule="nonzero"/></g></svg>