<svg xmlns="http://www.w3.org/2000/svg" xmlns:xlink="http://www.w3.org/1999/xlink" width="500" zoomAndPan="magnify" viewBox="0 0 375 374.999991" height="500" preserveAspectRatio="xMidYMid meet" version="1.0"><defs><clipPath id="0e12e4fdcc"><path d="M 90.238281 51.46875 L 284.488281 51.46875 L 284.488281 323.71875 L 90.238281 323.71875 Z M 90.238281 51.46875 " clip-rule="nonzero"/></clipPath></defs><path fill="#ffe161" d="M 264.296875 179.070312 C 263.824219 176.605469 262.945312 174.605469 261.945312 173.449219 C 259.96875 120.351562 245.03125 79.039062 189.566406 77.628906 C 191.136719 73.902344 192.929688 68.421875 191.097656 66.042969 C 191.097656 66.042969 189.839844 62.050781 186.128906 62.5625 C 184.214844 62.828125 183.851562 66.222656 184.003906 69.855469 C 182.429688 65.371094 180.039062 60.761719 176.679688 59.726562 C 176.679688 59.726562 171.550781 56.15625 167.464844 59.394531 C 163.445312 62.582031 176.53125 74.441406 180.019531 77.761719 C 123.226562 80.824219 112.042969 124.167969 111.097656 178.652344 C 110.972656 179.097656 110.863281 179.566406 110.769531 180.054688 C 110.214844 182.949219 110.359375 185.765625 111.03125 187.601562 C 111.085938 201.855469 113.015625 215.457031 116.496094 227.917969 C 127.691406 268.058594 154.855469 296.386719 186.605469 296.386719 C 218.015625 296.386719 244.964844 268.644531 256.355469 229.15625 C 259.972656 216.679688 262.015625 203.019531 262.167969 188.699219 C 262.285156 188.679688 262.402344 188.640625 262.519531 188.589844 C 264.355469 187.78125 265.148438 183.515625 264.296875 179.070312 Z M 264.296875 179.070312 " fill-opacity="1" fill-rule="nonzero"/><path fill="#ffe161" d="M 115.632812 173.480469 C 113.800781 172.667969 111.621094 175.609375 110.769531 180.054688 C 109.917969 184.5 110.710938 188.765625 112.542969 189.578125 C 114.375 190.390625 116.554688 187.445312 117.40625 183 C 118.261719 178.554688 117.464844 174.292969 115.632812 173.480469 Z M 115.632812 173.480469 " fill-opacity="1" fill-rule="nonzero"/><path fill="#ffe161" d="M 121.042969 189.851562 C 119.210938 189.035156 117.035156 191.980469 116.183594 196.425781 C 115.332031 200.871094 116.125 205.136719 117.957031 205.949219 C 119.789062 206.761719 121.96875 203.816406 122.820312 199.371094 C 123.675781 194.925781 122.878906 190.664062 121.042969 189.851562 Z M 121.042969 189.851562 " fill-opacity="1" fill-rule="nonzero"/><path fill="#ffe161" d="M 107.546875 188.230469 C 105.714844 187.417969 103.535156 190.359375 102.683594 194.808594 C 101.832031 199.253906 102.625 203.515625 104.457031 204.328125 C 106.289062 205.140625 108.46875 202.195312 109.320312 197.75 C 110.171875 193.304688 109.378906 189.042969 107.546875 188.230469 Z M 107.546875 188.230469 " fill-opacity="1" fill-rule="nonzero"/><path fill="#ffe161" d="M 126.578125 171.234375 C 124.710938 171.492188 123.625 175.476562 124.15625 180.128906 C 124.6875 184.78125 126.636719 188.339844 128.507812 188.082031 C 130.378906 187.820312 131.460938 183.835938 130.929688 179.1875 C 130.398438 174.535156 128.449219 170.972656 126.578125 171.234375 Z M 126.578125 171.234375 " fill-opacity="1" fill-rule="nonzero"/><path fill="#ffe161" d="M 248.488281 170.246094 C 246.617188 169.984375 244.667969 173.542969 244.136719 178.199219 C 243.601562 182.851562 244.6875 186.832031 246.558594 187.09375 C 248.429688 187.351562 250.378906 183.792969 250.910156 179.140625 C 251.445312 174.488281 250.359375 170.507812 248.488281 170.246094 Z M 248.488281 170.246094 " fill-opacity="1" fill-rule="nonzero"/><path fill="#ffe161" d="M 253.605469 188.105469 C 251.734375 187.847656 249.785156 191.40625 249.25 196.058594 C 248.71875 200.710938 249.800781 204.695312 251.675781 204.957031 C 253.542969 205.214844 255.492188 201.65625 256.027344 197 C 256.558594 192.347656 255.472656 188.367188 253.605469 188.105469 Z M 253.605469 188.105469 " fill-opacity="1" fill-rule="nonzero"/><path fill="#ffe161" d="M 239.175781 188.105469 C 237.304688 187.847656 235.355469 191.40625 234.820312 196.058594 C 234.289062 200.710938 235.375 204.695312 237.246094 204.957031 C 239.113281 205.214844 241.0625 201.65625 241.597656 197 C 242.128906 192.347656 241.046875 188.367188 239.175781 188.105469 Z M 239.175781 188.105469 " fill-opacity="1" fill-rule="nonzero"/><path fill="#ffe161" d="M 259.433594 172.492188 C 257.601562 173.308594 256.808594 177.570312 257.660156 182.015625 C 258.511719 186.460938 260.691406 189.40625 262.523438 188.59375 C 264.355469 187.78125 265.148438 183.515625 264.296875 179.070312 C 263.445312 174.625 261.265625 171.679688 259.433594 172.492188 Z M 259.433594 172.492188 " fill-opacity="1" fill-rule="nonzero"/><path fill="#be482a" d="M 196.28125 136.175781 C 192.636719 133.308594 187.863281 130.902344 187.863281 130.902344 L 179.363281 141.453125 L 202.269531 141.453125 C 202.269531 141.453125 199.925781 139.046875 196.28125 136.175781 Z M 187.691406 149.859375 C 191.855469 150.15625 203.832031 141.453125 202.269531 141.453125 C 200.707031 141.453125 179.363281 141.453125 179.363281 141.453125 C 179.363281 141.453125 183.527344 149.566406 187.691406 149.859375 Z M 187.691406 149.859375 " fill-opacity="1" fill-rule="nonzero"/><path fill="#ffe161" d="M 208.640625 127.703125 C 208.640625 120.460938 213.785156 114.582031 220.128906 114.582031 C 226.476562 114.582031 231.621094 120.457031 231.621094 127.703125 C 231.621094 134.953125 226.476562 140.824219 220.128906 140.824219 C 213.785156 140.824219 208.640625 134.949219 208.640625 127.703125 Z M 123.859375 253.515625 C 123.304688 253.558594 122.75 253.621094 122.191406 253.707031 C 122.921875 251.433594 123.480469 249.1875 123.84375 247.570312 C 123.941406 247.777344 124.039062 247.984375 124.132812 248.191406 C 124.046875 249.613281 123.945312 251.453125 123.859375 253.515625 Z M 258.269531 163.109375 C 248.207031 158.777344 235.84375 170 231.710938 188.433594 C 220.761719 180.179688 206.148438 175.5 186.78125 175.5 C 167.003906 175.5 152.28125 179.964844 141.363281 187.847656 C 137.101562 169.761719 124.894531 158.824219 114.9375 163.109375 C 103.894531 167.859375 97.109375 189.277344 99.78125 210.949219 C 99.917969 212.082031 101.746094 219.902344 103.25 229.859375 C 104.523438 238.308594 105.042969 246.089844 106.695312 248.027344 C 108.335938 249.945312 110.59375 244.699219 110.550781 242.84375 C 110.671875 245.316406 142.835938 284.441406 144.863281 278.027344 C 156.859375 289.625 171.273438 296.390625 186.785156 296.390625 C 202.0625 296.390625 216.277344 289.828125 228.164062 278.550781 C 230.070312 284.753906 262.53125 245.445312 262.660156 242.84375 C 262.617188 244.699219 264.875 249.945312 266.515625 248.027344 C 268.167969 246.089844 268.6875 238.308594 269.960938 229.859375 C 271.464844 219.902344 273.289062 212.082031 273.429688 210.949219 C 276.101562 189.277344 269.3125 167.859375 258.269531 163.109375 Z M 109.320312 197.75 C 108.46875 202.195312 106.289062 205.140625 104.457031 204.328125 C 102.625 203.515625 101.832031 199.253906 102.683594 194.808594 C 103.535156 190.359375 105.714844 187.417969 107.546875 188.230469 C 109.378906 189.042969 110.171875 193.304688 109.320312 197.75 Z M 112.546875 189.578125 C 110.714844 188.765625 109.917969 184.503906 110.773438 180.058594 C 111.625 175.613281 113.800781 172.667969 115.632812 173.480469 C 117.464844 174.292969 118.261719 178.558594 117.410156 183.003906 C 116.554688 187.445312 114.378906 190.394531 112.546875 189.578125 Z M 122.820312 199.371094 C 121.96875 203.816406 119.792969 206.761719 117.960938 205.949219 C 116.128906 205.136719 115.332031 200.871094 116.183594 196.425781 C 117.039062 191.980469 119.214844 189.035156 121.046875 189.851562 C 122.878906 190.664062 123.675781 194.925781 122.820312 199.371094 Z M 128.507812 188.082031 C 126.636719 188.339844 124.6875 184.78125 124.15625 180.128906 C 123.621094 175.476562 124.707031 171.492188 126.578125 171.234375 C 128.449219 170.972656 130.398438 174.53125 130.929688 179.1875 C 131.464844 183.835938 130.378906 187.820312 128.507812 188.082031 Z M 241.597656 197.003906 C 241.0625 201.65625 239.117188 205.21875 237.246094 204.957031 C 235.375 204.699219 234.289062 200.714844 234.820312 196.0625 C 235.355469 191.410156 237.300781 187.847656 239.175781 188.109375 C 241.046875 188.367188 242.128906 192.351562 241.597656 197.003906 Z M 246.558594 187.09375 C 244.6875 186.832031 243.605469 182.851562 244.136719 178.199219 C 244.667969 173.546875 246.617188 169.984375 248.488281 170.246094 C 250.359375 170.503906 251.441406 174.488281 250.910156 179.140625 C 250.378906 183.792969 248.429688 187.351562 246.558594 187.09375 Z M 256.027344 197.003906 C 255.492188 201.65625 253.546875 205.21875 251.675781 204.957031 C 249.804688 204.699219 248.71875 200.714844 249.25 196.0625 C 249.785156 191.410156 251.730469 187.847656 253.605469 188.109375 C 255.476562 188.367188 256.558594 192.351562 256.027344 197.003906 Z M 262.523438 188.59375 C 260.691406 189.40625 258.511719 186.460938 257.660156 182.015625 C 256.808594 177.570312 257.601562 173.308594 259.433594 172.492188 C 261.265625 171.679688 263.445312 174.625 264.296875 179.070312 C 265.148438 183.515625 264.355469 187.78125 262.523438 188.59375 Z M 151.171875 140.824219 C 157.519531 140.824219 162.664062 134.953125 162.664062 127.703125 C 162.664062 120.457031 157.519531 114.585938 151.171875 114.585938 C 144.824219 114.585938 139.683594 120.460938 139.683594 127.707031 C 139.683594 134.953125 144.824219 140.824219 151.171875 140.824219 Z M 186.753906 78.609375 C 154.820312 78.609375 135.84375 90.03125 124.738281 108.683594 L 131.621094 115.183594 L 149.164062 105.394531 L 169.152344 132.832031 L 189.25 102.222656 L 203.769531 117.625 L 216.042969 109.898438 L 227.011719 115.621094 L 236.617188 102.984375 L 247.542969 109.246094 C 247.542969 109.046875 247.53125 108.804688 247.511719 108.527344 C 236.070312 89.96875 217.179688 78.609375 186.753906 78.609375 Z M 186.753906 78.609375 " fill-opacity="1" fill-rule="nonzero"/><path fill="#282626" d="M 161.777344 127.078125 C 161.777344 133.980469 157.402344 139.574219 152.007812 139.574219 C 146.609375 139.574219 142.234375 133.980469 142.234375 127.078125 C 142.234375 120.179688 146.613281 114.585938 152.007812 114.585938 C 157.40625 114.585938 161.777344 120.179688 161.777344 127.078125 Z M 220.964844 114.585938 C 215.566406 114.585938 211.195312 120.179688 211.195312 127.078125 C 211.195312 133.980469 215.570312 139.574219 220.964844 139.574219 C 226.363281 139.574219 230.738281 133.980469 230.738281 127.078125 C 230.738281 120.179688 226.363281 114.585938 220.964844 114.585938 Z M 220.964844 114.585938 " fill-opacity="1" fill-rule="nonzero"/><g clip-path="url(#0e12e4fdcc)"><path fill="#ffffff" d="M 153.039062 124.441406 C 153.039062 126.972656 151.40625 129.023438 149.390625 129.023438 C 147.378906 129.023438 145.746094 126.976562 145.746094 124.441406 C 145.746094 121.910156 147.378906 119.859375 149.390625 119.859375 C 151.40625 119.859375 153.039062 121.914062 153.039062 124.441406 Z M 218.351562 119.859375 C 216.335938 119.859375 214.703125 121.910156 214.703125 124.441406 C 214.703125 126.976562 216.335938 129.023438 218.351562 129.023438 C 220.363281 129.023438 221.996094 126.976562 221.996094 124.441406 C 221.996094 121.910156 220.363281 119.859375 218.351562 119.859375 Z M 284.414062 194.351562 L 270.402344 178.289062 L 257.78125 202.609375 L 257.777344 202.617188 L 256.53125 206.367188 L 256.53125 213.769531 L 254.386719 203.882812 L 254.382812 203.882812 L 254.382812 203.878906 L 238.6875 193.441406 L 219.726562 207.269531 L 221.351562 212.75 L 219.015625 221.222656 L 218.597656 225.804688 L 217.140625 219.269531 L 219.269531 211.964844 L 216.683594 207.269531 L 196.605469 177.675781 L 169.359375 240.472656 L 170.769531 249.898438 L 165.933594 264.335938 L 171.761719 281.617188 L 163.6875 264.335938 C 163.6875 264.335938 167.835938 252.425781 167.425781 250.648438 C 166.429688 246.285156 164.753906 239.914062 164.691406 239.675781 C 164.6875 239.675781 164.6875 239.675781 164.691406 239.671875 L 164.6875 239.667969 L 131.996094 184.15625 L 107.480469 205.574219 L 105.34375 209.28125 L 104.863281 223.996094 L 103.589844 208.863281 L 102.671875 205.222656 L 90.929688 191.277344 C 90.507812 195.761719 90.289062 200.328125 90.289062 204.953125 C 90.289062 270.480469 133.832031 323.601562 187.542969 323.601562 C 241.257812 323.601562 284.800781 270.484375 284.800781 204.953125 C 284.796875 201.378906 284.667969 197.84375 284.414062 194.351562 Z M 131.621094 109.679688 L 149.164062 99.890625 L 169.152344 127.324219 L 189.25 96.714844 L 203.769531 112.121094 L 216.042969 104.394531 L 227.007812 110.117188 L 236.617188 97.480469 L 247.542969 103.742188 C 247.542969 97.574219 237.488281 51.507812 188.894531 51.507812 C 140.300781 51.507812 123.632812 102.136719 123.632812 102.136719 Z M 131.621094 109.679688 " fill-opacity="1" fill-rule="nonzero"/></g></svg>