<svg width="32" height="45" viewBox="0 0 32 45" fill="none" xmlns="http://www.w3.org/2000/svg">
<path d="M28.6737 21.091C28.5959 20.6836 28.4511 20.353 28.2864 20.1619C27.9607 11.3854 25.5 4.55693 16.3629 4.32385C16.6216 3.70789 16.917 2.80202 16.6152 2.40881C16.6152 2.40881 16.408 1.74895 15.7967 1.83353C15.4813 1.87744 15.4215 2.43852 15.4466 3.03898C15.1873 2.29776 14.7934 1.53588 14.24 1.36478C14.24 1.36478 13.3951 0.774647 12.722 1.3099C12.0598 1.83676 14.2156 3.79699 14.7902 4.3458C5.43436 4.852 3.59202 12.0163 3.43629 21.0219C3.4157 21.0955 3.39768 21.173 3.38224 21.2537C3.29086 21.7322 3.31467 22.1977 3.42535 22.5011C3.43436 24.8572 3.75225 27.1054 4.32561 29.165C6.16988 35.7998 10.6448 40.4822 15.8752 40.4822C21.0495 40.4822 25.4891 35.8967 27.3655 29.3697C27.9614 27.3074 28.2979 25.0496 28.323 22.6826C28.3423 22.6793 28.3616 22.6729 28.3809 22.6645C28.6834 22.5308 28.814 21.8258 28.6737 21.091Z" fill="#FFE161"/>
<path d="M4.1834 20.1673C3.8816 20.033 3.52253 20.5192 3.38225 21.254C3.24196 21.9887 3.37259 22.6938 3.6744 22.8281C3.9762 22.9624 4.33527 22.4756 4.47555 21.7408C4.61648 21.006 4.48521 20.3016 4.1834 20.1673Z" fill="#FFE161"/>
<path d="M5.07464 22.8731C4.77284 22.7381 4.41441 23.2249 4.27412 23.9597C4.13384 24.6945 4.26447 25.3995 4.56627 25.5338C4.86807 25.6681 5.22715 25.1813 5.36743 24.4465C5.50836 23.7118 5.37708 23.0074 5.07464 22.8731Z" fill="#FFE161"/>
<path d="M2.85134 22.6053C2.54954 22.471 2.19047 22.9572 2.05018 23.6926C1.9099 24.4274 2.04053 25.1318 2.34233 25.2661C2.64414 25.4004 3.00321 24.9135 3.14349 24.1788C3.28378 23.444 3.15314 22.7396 2.85134 22.6053Z" fill="#FFE161"/>
<path d="M5.98649 19.7962C5.6789 19.8388 5.50001 20.4974 5.58752 21.2664C5.67504 22.0353 5.99615 22.6235 6.30438 22.5809C6.61262 22.5377 6.79087 21.8791 6.70335 21.1108C6.61584 20.3418 6.29473 19.7529 5.98649 19.7962Z" fill="#FFE161"/>
<path d="M26.0695 19.6326C25.7613 19.5894 25.4401 20.1776 25.3526 20.9472C25.2645 21.7162 25.4434 22.3741 25.7516 22.4173C26.0598 22.46 26.3809 21.8718 26.4685 21.1028C26.5566 20.3338 26.3777 19.6759 26.0695 19.6326Z" fill="#FFE161"/>
<path d="M26.9125 22.5847C26.6043 22.5421 26.2831 23.1303 26.195 23.8993C26.1075 24.6682 26.2857 25.3268 26.5946 25.3701C26.9022 25.4127 27.2233 24.8245 27.3115 24.0549C27.399 23.2859 27.2201 22.628 26.9125 22.5847Z" fill="#FFE161"/>
<path d="M24.5354 22.5847C24.2272 22.5421 23.9061 23.1303 23.8179 23.8993C23.7304 24.6682 23.9093 25.3268 24.2175 25.3701C24.5251 25.4127 24.8462 24.8245 24.9344 24.0549C25.0219 23.2859 24.8436 22.628 24.5354 22.5847Z" fill="#FFE161"/>
<path d="M27.8726 20.0037C27.5708 20.1387 27.4401 20.8431 27.5804 21.5778C27.7207 22.3126 28.0798 22.7994 28.3816 22.6651C28.6834 22.5308 28.814 21.8258 28.6737 21.091C28.5335 20.3563 28.1744 19.8694 27.8726 20.0037Z" fill="#FFE161"/>
<path d="M17.4691 14.001C16.8687 13.5271 16.0824 13.1294 16.0824 13.1294L14.6821 14.8733H18.4556C18.4556 14.8733 18.0695 14.4756 17.4691 14.001ZM16.0541 16.2628C16.74 16.3119 18.713 14.8733 18.4556 14.8733C18.1982 14.8733 14.6821 14.8733 14.6821 14.8733C14.6821 14.8733 15.3681 16.2144 16.0541 16.2628Z" fill="#BE482A"/>
<path d="M19.5051 12.6005C19.5051 11.4035 20.3526 10.4317 21.3977 10.4317C22.4434 10.4317 23.2909 11.4028 23.2909 12.6005C23.2909 13.7989 22.4434 14.7693 21.3977 14.7693C20.3526 14.7693 19.5051 13.7982 19.5051 12.6005ZM5.5386 33.396C5.44722 33.4031 5.35585 33.4134 5.26382 33.4276C5.38416 33.0518 5.47618 32.6806 5.53603 32.4133C5.55211 32.4475 5.5682 32.4817 5.58364 32.5159C5.56949 32.7509 5.55276 33.0551 5.5386 33.396ZM27.6808 18.4528C26.0232 17.7367 23.9865 19.5917 23.3057 22.6386C21.5019 21.2743 19.0946 20.5008 15.9041 20.5008C12.6461 20.5008 10.2207 21.2388 8.42213 22.5418C7.72007 19.5523 5.70913 17.7445 4.06884 18.4528C2.24967 19.2379 1.13191 22.7781 1.57206 26.3602C1.59458 26.5474 1.89574 27.84 2.14349 29.4858C2.35327 30.8824 2.43886 32.1686 2.71106 32.4888C2.98133 32.8058 3.35327 31.9387 3.34619 31.632C3.36614 32.0407 8.66473 38.5077 8.9987 37.4475C10.9749 39.3645 13.3494 40.4827 15.9048 40.4827C18.4215 40.4827 20.7632 39.398 22.7214 37.534C23.0354 38.5593 28.3829 32.062 28.4041 31.632C28.397 31.9387 28.769 32.8058 29.0392 32.4888C29.3114 32.1686 29.397 30.8824 29.6068 29.4858C29.8546 27.84 30.1551 26.5474 30.1782 26.3602C30.6184 22.7781 29.5 19.2379 27.6808 18.4528ZM3.14349 24.1785C3.00321 24.9133 2.64413 25.4001 2.34233 25.2658C2.04053 25.1315 1.9099 24.4271 2.05018 23.6923C2.19046 22.9569 2.54954 22.4707 2.85134 22.605C3.15314 22.7393 3.28377 23.4437 3.14349 24.1785ZM3.67502 22.8278C3.37322 22.6935 3.24195 21.9891 3.38287 21.2543C3.52315 20.5195 3.88159 20.0327 4.18339 20.167C4.48519 20.3013 4.61646 21.0064 4.47618 21.7411C4.33525 22.4753 3.97682 22.9627 3.67502 22.8278ZM5.36743 24.4465C5.22715 25.1812 4.86872 25.668 4.56691 25.5337C4.26511 25.3994 4.13384 24.6944 4.27412 23.9596C4.41505 23.2249 4.77348 22.738 5.07528 22.873C5.37708 23.0073 5.50835 23.7117 5.36743 24.4465ZM6.30437 22.5805C5.99613 22.6231 5.67502 22.0349 5.58751 21.2659C5.49935 20.4969 5.67824 19.8384 5.98648 19.7958C6.29471 19.7525 6.61582 20.3407 6.70334 21.1103C6.7915 21.8787 6.6126 22.5372 6.30437 22.5805ZM24.9344 24.0552C24.8462 24.8242 24.5257 25.413 24.2175 25.3697C23.9093 25.3271 23.7304 24.6686 23.8179 23.8996C23.906 23.1306 24.2265 22.5418 24.5354 22.585C24.8436 22.6276 25.0219 23.2862 24.9344 24.0552ZM25.7516 22.4171C25.4434 22.3739 25.2651 21.716 25.3526 20.947C25.4401 20.178 25.7613 19.5891 26.0695 19.6324C26.3777 19.675 26.556 20.3336 26.4685 21.1026C26.3809 21.8716 26.0598 22.4598 25.7516 22.4171ZM27.3114 24.0552C27.2233 24.8242 26.9028 25.413 26.5946 25.3697C26.2863 25.3271 26.1075 24.6686 26.195 23.8996C26.2831 23.1306 26.6036 22.5418 26.9125 22.585C27.2207 22.6276 27.399 23.2862 27.3114 24.0552ZM28.3816 22.6651C28.0798 22.7994 27.7207 22.3125 27.5804 21.5778C27.4401 20.843 27.5708 20.1386 27.8726 20.0037C28.1744 19.8694 28.5335 20.3562 28.6737 21.091C28.814 21.8257 28.6834 22.5308 28.3816 22.6651ZM10.038 14.7693C11.0836 14.7693 11.9311 13.7989 11.9311 12.6005C11.9311 11.4028 11.0836 10.4324 10.038 10.4324C8.99227 10.4324 8.14542 11.4035 8.14542 12.6012C8.14542 13.7989 8.99227 14.7693 10.038 14.7693ZM15.8996 4.48584C10.639 4.48584 7.51286 6.37375 5.68339 9.45678L6.81723 10.5312L9.7072 8.91314L13 13.4483L16.3108 8.38886L18.7027 10.9347L20.7246 9.65759L22.5315 10.6035L24.1139 8.51477L25.9138 9.54976C25.9138 9.51683 25.9118 9.4768 25.9086 9.43096C24.0238 6.36342 20.9118 4.48584 15.8996 4.48584Z" fill="#FFE161"/>
<path d="M11.7851 12.4974C11.7851 13.6383 11.0644 14.5629 10.1757 14.5629C9.28636 14.5629 8.56564 13.6383 8.56564 12.4974C8.56564 11.3572 9.28701 10.4326 10.1757 10.4326C11.065 10.4326 11.7851 11.3572 11.7851 12.4974ZM21.5354 10.4326C20.6461 10.4326 19.926 11.3572 19.926 12.4974C19.926 13.6383 20.6467 14.5629 21.5354 14.5629C22.4247 14.5629 23.1454 13.6383 23.1454 12.4974C23.1454 11.3572 22.4247 10.4326 21.5354 10.4326Z" fill="#282626"/>
<mask id="mask0_51_1282" style="mask-type:luminance" maskUnits="userSpaceOnUse" x="0" y="0" width="32" height="45">
<path d="M0 0H32V45H0V0Z" fill="white"/>
</mask>
<g mask="url(#mask0_51_1282)">
<path d="M10.3456 12.0615C10.3456 12.4799 10.0766 12.8188 9.74453 12.8188C9.41312 12.8188 9.14414 12.4805 9.14414 12.0615C9.14414 11.6431 9.41312 11.3041 9.74453 11.3041C10.0766 11.3041 10.3456 11.6437 10.3456 12.0615ZM21.1049 11.3041C20.7728 11.3041 20.5039 11.6431 20.5039 12.0615C20.5039 12.4805 20.7728 12.8188 21.1049 12.8188C21.4363 12.8188 21.7053 12.4805 21.7053 12.0615C21.7053 11.6431 21.4363 11.3041 21.1049 11.3041ZM31.9878 23.6169L29.6795 20.9619L27.6004 24.9818L27.5997 24.9831L27.3945 25.6029V26.8265L27.0412 25.1923H27.0405V25.1917L24.455 23.4664L21.3314 25.7521L21.5991 26.658L21.2143 28.0584L21.1454 28.8158L20.9054 27.7356L21.2561 26.5282L20.8301 25.7521L17.5225 20.8606L13.0341 31.2402L13.2664 32.7982L12.4698 35.1846L13.4299 38.041L12.0997 35.1846C12.0997 35.1846 12.7831 33.2159 12.7156 32.9222C12.5515 32.201 12.2754 31.1479 12.2651 31.1085C12.2645 31.1085 12.2645 31.1085 12.2651 31.1078L12.2645 31.1072L6.87902 21.9317L2.84041 25.4719L2.48841 26.0846L2.40926 28.5168L2.19948 26.0155L2.04826 25.4138L0.113896 23.1088C0.0443977 23.85 0.00836182 24.6047 0.00836182 25.3692C0.00836182 36.2002 7.18146 44.9805 16.0296 44.9805C24.8784 44.9805 32.0515 36.2008 32.0515 25.3692C32.0508 24.7784 32.0296 24.1941 31.9878 23.6169ZM6.81724 9.62153L9.7072 8.00351L13 12.538L16.3108 7.47858L18.7027 10.0251L20.7246 8.74795L22.5309 9.69385L24.1139 7.60513L25.9138 8.64013C25.9138 7.62063 24.2574 0.00634766 16.2522 0.00634766C8.2471 0.00634766 5.50128 8.37476 5.50128 8.37476L6.81724 9.62153Z" fill="white"/>
</g>
</svg>
